# xmcd
#
# Track frame offsets:
# 150
# 18105
# 32549
# 48776
# 80543
# 94446
# 108789
# 124097
# 142261
# 161273
# 198080
#
# Disc length: 2885 seconds
#
#
# Revision: 0
# Processed by: cddbd v1.4PL0 Copyright (c) Steve Scherf et al.
# Submitted via: FreeRIP 2.30 
#
DISCID=810b430b
DTITLE=Oreo Blue - Rx for the Blues
DYEAR=2000
DGENRE=Blues
TTITLE0=Prescription for the Blues
TTITLE1=Love My Baby
TTITLE2=Let me Be
TTITLE3=Nobody Knows
TTITLE4=Settle Down
TTITLE5=Why'd Ya Do It To Me
TTITLE6=Old Dog
TTITLE7=Talk Dirty
TTITLE8=Fairly Dangerous Man
TTITLE9=Sweet Little Angel
TTITLE10=Flip Flop Fly
EXTD=
EXTT0=
EXTT1=
EXTT2=
EXTT3=
EXTT4=
EXTT5=
EXTT6=
EXTT7=
EXTT8=
EXTT9=
EXTT10=
PLAYORDER=
